HIERARCHY
ROOT Hips
{
	OFFSET 0.000000 0.000000 0.000000
	CHANNELS 6 Xposition Yposition Zposition Zrotation Yrotation Xrotation 
	JOINT LHipJoint
	{
		OFFSET 0.000000 0.000000 0.000000
		CHANNELS 3 Zrotation Yrotation Xrotation
		JOINT LeftUpLeg
		{
			OFFSET 1.363060 -1.794630 0.839290
			CHANNELS 3 Zrotation Yrotation Xrotation
			JOINT LeftLeg
			{
				OFFSET 2.448110 -6.726130 0.000000
				CHANNELS 3 Zrotation Yrotation Xrotation
				JOINT LeftFoot
				{
					OFFSET 2.562200 -7.039590 0.000000
					CHANNELS 3 Zrotation Yrotation Xrotation
					JOINT LeftToeBase
					{
						OFFSET 0.157640 -0.433110 2.322550
						CHANNELS 3 Zrotation Yrotation Xrotation
						End Site
						{
							OFFSET 0.000000 0.000000 0.000000
						}
					}
				}
			}
		}
	}
	JOINT RHipJoint
	{
		OFFSET 0.000000 0.000000 0.000000
		CHANNELS 3 Zrotation Yrotation Xrotation
		JOINT RightUpLeg
		{
			OFFSET -1.305520 -1.794630 0.839290
			CHANNELS 3 Zrotation Yrotation Xrotation
			JOINT RightLeg
			{
				OFFSET -2.542530 -6.985550 0.000000
				CHANNELS 3 Zrotation Yrotation Xrotation
				JOINT RightFoot
				{
					OFFSET -2.568260 -7.056230 0.000000
					CHANNELS 3 Zrotation Yrotation Xrotation
					JOINT RightToeBase
					{
						OFFSET -0.164730 -0.452590 2.363150
						CHANNELS 3 Zrotation Yrotation Xrotation
						End Site
						{
							OFFSET 0.000000 0.000000 0.000000
						}
					}
				}
			}
		}
	}
	JOINT LowerBack
	{
		OFFSET 0.000000 0.000000 0.000000
		CHANNELS 3 Zrotation Yrotation Xrotation
		JOINT Spine
		{
			OFFSET 0.028270 2.035590 -0.193380
			CHANNELS 3 Zrotation Yrotation Xrotation
			JOINT Spine1
			{
				OFFSET 0.056720 2.048850 -0.042750
				CHANNELS 3 Zrotation Yrotation Xrotation
				JOINT Neck
				{
					OFFSET 0.000000 0.000000 0.000000
					CHANNELS 3 Zrotation Yrotation Xrotation
					JOINT Neck1
					{
						OFFSET -0.054170 1.746240 0.172020
						CHANNELS 3 Zrotation Yrotation Xrotation
						JOINT Head
						{
							OFFSET 0.104070 1.761360 -0.123970
							CHANNELS 3 Zrotation Yrotation Xrotation
							End Site
							{
								OFFSET 0.000000 0.000000 0.000000
							}
						}
					}
				}
				JOINT LeftShoulder
				{
					OFFSET 0.000000 0.000000 0.000000
					CHANNELS 3 Zrotation Yrotation Xrotation
					JOINT LeftArm
					{
						OFFSET 3.362410 1.200890 -0.311210
						CHANNELS 3 Zrotation Yrotation Xrotation
						JOINT LeftForeArm
						{
							OFFSET 4.983000 -0.000000 -0.000000
							CHANNELS 3 Zrotation Yrotation Xrotation
							JOINT LeftHand
							{
								OFFSET 3.483560 -0.000000 -0.000000
								CHANNELS 3 Zrotation Yrotation Xrotation
								JOINT LeftFingerBase
								{
									OFFSET 0.000000 0.000000 0.000000
									CHANNELS 3 Zrotation Yrotation Xrotation
									JOINT LeftHandIndex1
									{
										OFFSET 0.715260 -0.000000 -0.000000
										CHANNELS 3 Zrotation Yrotation Xrotation
										End Site
										{
											OFFSET 0.000000 0.000000 0.000000
										}
									}
								}
								JOINT LThumb
								{
									OFFSET 0.000000 0.000000 0.000000
									CHANNELS 3 Zrotation Yrotation Xrotation
									End Site
									{
										OFFSET 0.000000 0.000000 0.000000
									}
								}
							}
						}
					}
				}
				JOINT RightShoulder
				{
					OFFSET 0.000000 0.000000 0.000000
					CHANNELS 3 Zrotation Yrotation Xrotation
					JOINT RightArm
					{
						OFFSET -3.136600 1.374050 -0.404650
						CHANNELS 3 Zrotation Yrotation Xrotation
						JOINT RightForeArm
						{
							OFFSET -5.241900 -0.000000 -0.000000
							CHANNELS 3 Zrotation Yrotation Xrotation
							JOINT RightHand
							{
								OFFSET -3.444170 -0.000000 -0.000000
								CHANNELS 3 Zrotation Yrotation Xrotation
								JOINT RightFingerBase
								{
									OFFSET 0.000000 0.000000 0.000000
									CHANNELS 3 Zrotation Yrotation Xrotation
									JOINT RightHandIndex1
									{
										OFFSET -0.622530 -0.000000 -0.000000
										CHANNELS 3 Zrotation Yrotation Xrotation
										End Site
										{
											OFFSET 0.000000 0.000000 0.000000
										}
									}
								}
								JOINT RThumb
								{
									OFFSET 0.000000 0.000000 0.000000
									CHANNELS 3 Zrotation Yrotation Xrotation
									End Site
									{
										OFFSET 0.000000 0.000000 0.000000
									}
								}
							}
						}
					}
				}
			}
		}
	}
}
MOTION
Frames: 7
Frame Time: 0.008333
7.247751 16.988619 0.841664 18.349892 62.042960 34.804654 -11.250610 6.235710 0.397762 -13.693123 17.493981 -5.195523 -2.411215 1.116102 18.679163 0.000623 -4.430705 16.423032 -1.554200 0.000000 -82.758200 7.920732 -1.593432 4.655252 18.983754 1.998204 -33.539640 3.427693 1.975089 6.240317 -2.257262 -6.354073 -12.157907 -0.009700 0.000000 -0.676000 4.590348 -4.165055 -5.755672 0.304882 -4.755891 -3.778880 -7.362430 -4.682866 0.469980 6.203601 -14.623368 -8.545241 -4.473223 -0.332375 -0.259354 0.000000 0.000000 0.000000 3.022844 6.040975 0.963993 -34.000716 -13.042502 3.056871 -179.388190 -74.643560 179.907037 11.185902 2.000244 0.159906 -0.354386 0.460487 -0.000000 0.000000 0.000000 0.000000 0.000000 0.000000 0.000000 14.464811 -10.804595 -0.755138 74.893075 2.499663 19.785161 -0.054110 86.772622 0.007249 0.765363 2.878490 0.023503 -0.011287 -0.361018 0.000000 0.000000 0.000000 0.000000 0.000000 0.000000 0.000000 
7.442108 16.947951 0.932984 18.520483 61.574885 35.136881 -11.346264 6.293943 0.532088 -13.521636 17.208165 -5.905079 -2.257305 1.256426 20.782283 0.009347 -5.930581 17.771373 -2.253000 0.000000 -83.806099 7.874015 -1.620476 4.833807 18.614078 2.820557 -34.118151 3.261765 1.754869 8.437693 -2.557985 -6.991996 -13.700797 -179.737100 0.000000 -6.847100 4.872338 -4.087550 -6.082044 0.368363 -4.717285 -3.848169 -7.332253 -4.646893 0.473785 5.838262 -14.558047 -8.731132 -4.533499 -0.335724 -0.317122 0.000000 0.000000 0.000000 2.462751 6.512012 0.992933 -34.015162 -12.782947 2.808669 -179.345287 -74.357048 179.906550 11.365092 1.678183 0.128991 -0.364937 0.466095 0.000000 0.000000 0.000000 0.000000 0.000000 0.000000 0.000000 14.442335 -10.608511 -0.766998 74.999256 1.980665 18.977034 -0.020465 86.034634 0.004652 0.267625 2.714977 0.008742 -0.001708 -0.354627 0.000000 0.000000 0.000000 0.000000 0.000000 0.000000 0.000000 
7.634139 16.911615 1.023188 18.585719 61.129551 35.324294 -11.466113 6.334778 0.650931 -13.236883 17.025051 -6.701735 -2.085894 1.386857 23.018592 0.042023 -7.476950 19.177250 -3.042600 0.000000 -83.931900 7.838718 -1.659706 4.934322 18.297801 3.431840 -34.827843 3.110548 1.446642 11.186043 -2.790314 -7.364056 -15.181979 -179.449901 0.000000 -12.187399 5.162171 -3.997022 -6.330492 0.433822 -4.662724 -3.906933 -7.286882 -4.595592 0.462501 5.506779 -14.452583 -8.896609 -4.595875 -0.339320 -0.370486 0.000000 0.000000 0.000000 1.954929 6.958545 1.011651 -34.351005 -12.498978 2.669546 -179.305126 -74.169258 179.906242 11.546945 1.337221 0.095078 -0.374906 0.471834 -0.000000 0.000000 0.000000 0.000000 0.000000 0.000000 0.000000 14.452341 -10.374214 -0.768079 75.021407 1.567348 18.221181 0.015974 85.234806 0.001535 -0.339572 2.556838 -0.007317 0.009807 -0.348467 0.000000 0.000000 0.000000 0.000000 0.000000 0.000000 0.000000 
7.822234 16.879962 1.112292 18.538535 60.711800 35.329847 -11.601114 6.354087 0.735620 -12.826205 16.967314 -7.530165 -1.900308 1.505556 25.358407 0.101268 -8.914781 20.569975 -3.856200 0.000000 -83.079600 7.818495 -1.701735 4.947403 18.062348 3.802256 -35.511400 2.978751 1.090246 14.210950 -2.942031 -7.468489 -16.561970 -179.173000 0.000001 -15.753100 5.447522 -3.899537 -6.465214 0.498445 -4.595263 -3.948330 -7.226211 -4.531998 0.432818 5.220939 -14.299800 -9.032809 -4.659482 -0.343117 -0.416858 0.000000 0.000000 0.000000 1.537477 7.360215 1.019844 -35.029248 -12.161433 2.642265 -179.270514 -74.087175 179.906148 11.721665 1.002664 0.060651 -0.383612 0.476995 -0.000000 0.000000 0.000000 0.000000 0.000000 0.000000 0.000000 14.500204 -10.099736 -0.758167 74.969952 1.272305 17.532015 0.055406 84.365669 -0.002038 -1.043711 2.409128 -0.023978 0.022779 -0.342586 0.000000 0.000000 0.000000 0.000000 0.000000 0.000000 0.000000 
8.005124 16.853259 1.200841 18.385901 60.323160 35.149889 -11.739932 6.349154 0.775486 -12.297808 17.031394 -8.358571 -1.705518 1.612747 27.773759 0.184602 -10.068295 21.876184 -4.598500 0.000000 -81.296100 7.813817 -1.741358 4.877027 17.923403 3.926363 -36.044086 2.872858 0.727276 17.237565 -3.012871 -7.324756 -17.825605 -178.925899 0.000000 -18.007700 5.710941 -3.801478 -6.474225 0.558763 -4.518954 -3.968811 -7.151419 -4.460079 0.387300 4.993712 -14.105119 -9.136903 -4.722703 -0.346984 -0.455023 0.000000 0.000000 0.000000 1.233445 7.708450 1.017088 -36.040296 -11.751566 2.726355 -179.244268 -74.119913 179.906323 11.876590 0.698983 0.028496 -0.390337 0.480828 0.000000 0.000000 0.000000 0.000000 0.000000 0.000000 0.000000 14.594953 -9.796112 -0.738204 74.854194 1.114157 16.938445 0.097865 83.419081 -0.005966 -1.827296 2.274300 -0.040844 0.036805 -0.336931 0.000000 0.000000 0.000000 0.000000 0.000000 0.000000 0.000000 
8.182020 16.831733 1.289490 18.124188 59.962848 34.787997 -11.874244 6.317435 0.764397 -11.660623 17.200944 -9.177818 -1.506490 1.710748 30.242677 0.286381 -10.773083 23.022091 -5.160901 0.000000 -78.710500 7.818437 -1.778148 4.740074 17.889703 3.842730 -36.328670 2.798038 0.395317 20.012538 -3.017614 -6.991310 -18.965608 -178.720500 -0.000000 -19.311101 5.944089 -3.706656 -6.363873 0.613013 -4.437115 -3.968573 -7.065824 -4.383041 0.329302 4.835060 -13.874569 -9.207483 -4.784195 -0.350827 -0.484030 0.000000 0.000000 0.000000 1.048851 7.998769 1.004263 -37.348124 -11.252751 2.914847 -179.228698 -74.271710 179.906845 11.995925 0.448001 0.001399 -0.394397 0.482631 -0.000000 0.000000 0.000000 0.000000 0.000000 0.000000 0.000000 14.744095 -9.472767 -0.709329 74.683132 1.103581 16.466376 0.142982 82.394133 -0.010096 -2.663817 2.151153 -0.057116 0.051399 -0.331403 0.000000 0.000000 0.000000 0.000000 0.000000 0.000000 0.000000 
8.352391 16.815341 1.379152 17.764123 59.626853 34.271587 -11.995619 6.257351 0.704004 -10.938442 17.440074 -9.991135 -1.307417 1.802906 32.743058 0.400440 -10.893141 23.943767 -5.439200 -0.000001 -75.498001 7.825931 -1.813657 4.556271 17.957630 3.600589 -36.319162 2.757177 0.118410 22.365366 -2.976984 -6.530554 -19.994420 -178.558999 0.000000 -19.965400 6.134446 -3.618374 -6.154079 0.658421 -4.353035 -3.950480 -6.974366 -4.304046 0.262488 4.752409 -13.614433 -9.243736 -4.842645 -0.354581 -0.503003 0.000000 0.000000 0.000000 0.979402 8.227847 0.983125 -38.891888 -10.648812 3.194088 -179.225528 -74.544175 179.907797 12.064566 0.268000 -0.018048 -0.395213 0.481765 -0.000000 0.000000 0.000000 0.000000 0.000000 0.000000 0.000000 14.953503 -9.137783 -0.673110 74.468868 1.241015 16.137125 0.190109 81.298296 -0.014236 -3.518355 2.035896 -0.072193 0.065984 -0.325893 0.000000 0.000000 0.000000 0.000000 0.000000 0.000000 0.000000 
